<svg xmlns="http://www.w3.org/2000/svg" viewBox="0 0 1200 800"><defs><linearGradient id="bg" x1="0" y1="1" x2="1"><stop stop-color="#0b0b0e"/><stop offset="1" stop-color="#161014"/></linearGradient><radialGradient id="r"><stop stop-color="#ff4f7b" stop-opacity=".4"/><stop offset="1" stop-color="#ff4f7b" stop-opacity="0"/></radialGradient></defs><rect width="1200" height="800" fill="url(#bg)"/><circle cx="240" cy="170" r="260" fill="url(#r)"/><g fill="#15161b"><circle cx="245" cy="285" r="84"/><path d="M118 760c18-265 68-390 127-390s112 125 142 390z"/><circle cx="580" cy="240" r="104"/><path d="M415 760c24-300 83-420 165-420s139 120 172 420z"/><circle cx="950" cy="315" r="78"/><path d="M830 760c20-245 66-365 120-365s100 120 124 365z"/></g><g fill="#f0ece6" opacity=".08"><circle cx="245" cy="275" r="50"/><circle cx="580" cy="230" r="60"/><circle cx="950" cy="305" r="46"/></g></svg>